<svg width="59" height="50" viewBox="0 0 59 50" fill="none" xmlns="http://www.w3.org/2000/svg">
<path d="M0 35.7179H4.77663V14.9212H0V12.1777L9.28382 11.7612L9.8962 17.1013C10.2228 16.1378 10.6964 15.2804 11.3169 14.5292C11.9375 13.7617 12.6397 13.1575 13.4236 12.7166C14.926 11.8837 16.51 11.4673 18.1757 11.4673C18.8126 11.4673 19.3515 11.4999 19.7924 11.5653C20.2333 11.6143 20.7314 11.7286 21.2866 11.9082C21.9072 12.1205 22.4379 12.4063 22.8788 12.7655C23.3361 13.1248 23.777 13.6311 24.2016 14.2843C24.6099 14.9375 24.9528 15.7377 25.2304 16.6848C25.998 14.9375 27.0594 13.6311 28.4148 12.7655C29.7866 11.9 31.338 11.4673 33.069 11.4673C33.6242 11.4673 34.1141 11.4918 34.5387 11.5408C34.9797 11.5898 35.4614 11.6959 35.984 11.8592C36.5719 12.0388 37.0863 12.2675 37.5272 12.5451C37.9844 12.8227 38.4499 13.1983 38.9234 13.6719C39.4134 14.1781 39.8134 14.7579 40.1237 15.4111C40.434 16.048 40.6953 16.84 40.9076 17.7871C41.1035 18.7343 41.2015 19.8039 41.2015 20.9961V35.7179H45.7087V38.4614H31.9667V35.7179H35.935V21.045C35.935 18.9711 35.5267 17.4197 34.7102 16.3909C33.8937 15.3457 32.7424 14.8232 31.2563 14.8232C30.1295 14.8232 29.1497 15.0681 28.3169 15.558C27.484 16.048 26.8471 16.7257 26.4062 17.5912C25.9653 18.4567 25.7448 19.4447 25.7448 20.5551V35.7179H29.9581V38.4614H16.265V35.7179H20.4783V21.045C20.4783 18.9711 20.07 17.4197 19.2535 16.3909C18.437 15.3457 17.2857 14.8232 15.7996 14.8232C14.8851 14.8232 14.0686 15.0028 13.3501 15.3621C12.6479 15.705 12.0845 16.1704 11.6599 16.7583C11.268 17.3136 10.9413 18.0076 10.6801 18.8404C10.4351 19.657 10.2636 20.498 10.1657 21.3635C10.084 22.2943 10.0432 23.2088 10.0432 24.107V35.7179H14.2564V38.4614H0V35.7179Z" fill="#0C2999"/>
<path d="M54.8078 7.54813C54.1546 7.54813 53.5504 7.38483 52.9952 7.05822C52.4399 6.73161 51.999 6.29069 51.6724 5.73546C51.3458 5.18023 51.1825 4.58417 51.1825 3.94728C51.1825 3.27774 51.3458 2.66535 51.6724 2.11012C51.999 1.53855 52.4399 1.08947 52.9952 0.76286C53.5504 0.436253 54.1546 0.272949 54.8078 0.272949C55.4447 0.272949 56.0408 0.444418 56.596 0.787356C57.1676 1.11396 57.6167 1.56305 57.9433 2.13461C58.2862 2.68984 58.4577 3.29407 58.4577 3.94728C58.4577 4.58417 58.2862 5.18023 57.9433 5.73546C57.6167 6.29069 57.1676 6.73161 56.596 7.05822C56.0408 7.38483 55.4447 7.54813 54.8078 7.54813ZM49.5413 49.9989C47.1571 49.9989 45.3281 49.5335 44.0543 48.6027C42.7642 47.6719 42.1191 46.3654 42.1191 44.6834C42.1191 43.9812 42.2824 43.3688 42.6091 42.8462C42.9357 42.3237 43.3684 41.9236 43.9073 41.6459C44.4462 41.3683 45.0341 41.2295 45.671 41.2295C46.4875 41.2295 47.1652 41.4745 47.7041 41.9644C48.2594 42.4543 48.537 43.1075 48.537 43.924C48.537 45.5897 48.0634 46.6267 47.1162 47.035C47.6551 47.2309 48.243 47.3289 48.8799 47.3289C49.3862 47.3289 49.8434 47.2473 50.2517 47.084C50.6763 46.9207 51.1008 46.6512 51.5254 46.2756C51.9664 45.8837 52.3011 45.2713 52.5298 44.4384C52.7747 43.6056 52.8972 42.6013 52.8972 41.4255V14.9213H46.9203V12.1778H58.1637V40.6661C58.1637 42.6258 57.8045 44.3078 57.0859 45.7122C56.3837 47.1166 55.3794 48.1781 54.073 48.8966C52.7829 49.6315 51.2723 49.9989 49.5413 49.9989Z" fill="#0C2999"/>
<ellipse cx="54.8192" cy="4.18057" rx="4.18058" ry="4.18057" fill="#FF1C14"/>
</svg>
