<svg width="32" height="32" viewBox="0 0 32 32" fill="none" xmlns="http://www.w3.org/2000/svg">
<rect width="32" height="32" fill="white"/>
<path d="M1 21.1616H3.4288V10.587H1V9.19202L5.72058 8.98027L6.03197 11.6955C6.19804 11.2056 6.43884 10.7697 6.75438 10.3877C7.06992 9.99746 7.42697 9.69023 7.82554 9.46603C8.58947 9.04255 9.39492 8.83081 10.2419 8.83081C10.5657 8.83081 10.8397 8.84742 11.0639 8.88063C11.2881 8.90554 11.5414 8.96367 11.8237 9.05501C12.1393 9.16295 12.4091 9.30827 12.6333 9.49095C12.8658 9.67362 13.09 9.93103 13.3059 10.2632C13.5135 10.5953 13.6879 11.0022 13.829 11.4838C14.2193 10.5953 14.759 9.93103 15.4482 9.49095C16.1457 9.05086 16.9346 8.83081 17.8147 8.83081C18.0971 8.83081 18.3462 8.84327 18.5621 8.86818C18.7863 8.89309 19.0312 8.94706 19.2969 9.0301C19.5959 9.12144 19.8574 9.23769 20.0816 9.37885C20.3141 9.52001 20.5508 9.71099 20.7916 9.95179C21.0407 10.2092 21.2441 10.504 21.4019 10.8361C21.5597 11.16 21.6925 11.5627 21.8005 12.0443C21.9001 12.5259 21.9499 13.0698 21.9499 13.6759V21.1616H24.2417V22.5566H17.2543V21.1616H19.272V13.7009C19.272 12.6463 19.0644 11.8575 18.6493 11.3343C18.2341 10.8029 17.6487 10.5372 16.893 10.5372C16.3201 10.5372 15.8219 10.6617 15.3984 10.9109C14.9749 11.16 14.6511 11.5046 14.4269 11.9447C14.2027 12.3847 14.0906 12.8871 14.0906 13.4518V21.1616H16.2329V22.5566H9.27036V21.1616H11.4127V13.7009C11.4127 12.6463 11.2051 11.8575 10.7899 11.3343C10.3747 10.8029 9.78934 10.5372 9.03371 10.5372C8.56871 10.5372 8.15353 10.6285 7.78818 10.8112C7.43112 10.9856 7.14465 11.2222 6.92875 11.5212C6.72947 11.8035 6.5634 12.1564 6.43054 12.5799C6.30599 12.9951 6.2188 13.4227 6.16898 13.8628C6.12746 14.3361 6.1067 14.8011 6.1067 15.2578V21.1616H8.24902V22.5566H1V21.1616Z" fill="#0C2999"/>
<path d="M28.8689 6.83792C28.5367 6.83792 28.2295 6.75488 27.9472 6.58881C27.6649 6.42274 27.4407 6.19854 27.2746 5.91622C27.1085 5.6339 27.0255 5.33082 27.0255 5.00698C27.0255 4.66653 27.1085 4.35515 27.2746 4.07282C27.4407 3.7822 27.6649 3.55385 27.9472 3.38778C28.2295 3.22171 28.5367 3.13867 28.8689 3.13867C29.1927 3.13867 29.4958 3.22586 29.7781 3.40023C30.0687 3.56631 30.2971 3.79465 30.4632 4.08528C30.6375 4.3676 30.7247 4.67483 30.7247 5.00698C30.7247 5.33082 30.6375 5.6339 30.4632 5.91622C30.2971 6.19854 30.0687 6.42274 29.7781 6.58881C29.4958 6.75488 29.1927 6.83792 28.8689 6.83792ZM26.191 28.4231C24.9786 28.4231 24.0486 28.1864 23.401 27.7131C22.745 27.2398 22.417 26.5755 22.417 25.7203C22.417 25.3632 22.5 25.0518 22.6661 24.7861C22.8322 24.5204 23.0522 24.3169 23.3262 24.1758C23.6003 24.0346 23.8992 23.964 24.223 23.964C24.6382 23.964 24.9828 24.0886 25.2568 24.3377C25.5391 24.5868 25.6803 24.919 25.6803 25.3341C25.6803 26.1811 25.4395 26.7084 24.9579 26.916C25.2319 27.0156 25.5308 27.0654 25.8547 27.0654C26.1121 27.0654 26.3446 27.0239 26.5522 26.9409C26.7681 26.8578 26.984 26.7208 27.1999 26.5299C27.4241 26.3306 27.5943 26.0192 27.7105 25.5957C27.8351 25.1722 27.8974 24.6615 27.8974 24.0637V10.587H24.8582V9.19198H30.5753V23.6776C30.5753 24.674 30.3926 25.5293 30.0272 26.2434C29.6702 26.9575 29.1595 27.4972 28.4952 27.8626C27.8392 28.2362 27.0711 28.4231 26.191 28.4231Z" fill="#0C2999"/>
<ellipse cx="28.8738" cy="5.12572" rx="2.12572" ry="2.12572" fill="#FF1C14"/>
</svg>
