<?xml version="1.0" encoding="UTF-8"?>
<svg width="50px" height="50px" viewBox="0 0 50 50" version="1.1" xmlns="http://www.w3.org/2000/svg" xmlns:xlink="http://www.w3.org/1999/xlink">
    <title>linked-in</title>
    <g id="linked-in" stroke="none" stroke-width="1" fill="none" fill-rule="evenodd">
        <rect id="Rectangle" fill="#043999" x="5" y="6.66666667" width="37.5" height="35.8333333"></rect>
        <g id="326115_linkedin_linked_linked-in_logo_icon" transform="translate(1.000000, 1.000000)" fill="#AEBFDE" fill-rule="nonzero">
            <path d="M4.8,0 C2.1408,0 0,2.1408 0,4.8 L0,43.2 C0,45.8592 2.1408,48 4.8,48 L43.2,48 C45.8592,48 48,45.8592 48,43.2 L48,4.8 C48,2.1408 45.8592,0 43.2,0 L4.8,0 Z M13.431,10.155 C15.2724864,10.155 16.764,11.6465136 16.764,13.488 C16.764,15.3294864 15.2724864,16.824 13.431,16.824 C11.5895136,16.824 10.098,15.3294864 10.098,13.488 C10.098,11.6465136 11.5895136,10.155 13.431,10.155 Z M30.891,18.8369198 C31.2675178,18.8383411 31.6517299,18.8561021 32.169,18.888 C34.6826438,19.0430083 37.4836205,21.0076723 37.566,25.611 C37.633848,29.4023078 37.614,35.4107712 37.614,37.623 L31.899,37.623 C31.899,35.3598278 31.923,30.6846749 31.923,27.378 C31.923,25.8734486 31.2476362,23.85 28.842,23.85 C26.1926611,23.85 25.548,26.3118538 25.548,27.378 C25.548,30.5530656 25.521,35.6101267 25.521,37.623 L19.839,37.623 C19.839,34.2299222 19.875,22.584264 19.875,19.296 C22.809457,19.296 24.2133235,19.29 25.287,19.29 C25.287,20.3668541 25.278,21.0873034 25.278,21.873 C26.1743482,20.0632752 28.6218029,18.9301594 29.67,18.876 C30.1479437,18.851305 30.5144813,18.835656 30.891,18.8369198 Z M10.578,19.368 L16.275,19.368 L16.275,37.614 L10.578,37.614 L10.578,19.368 Z" id="rect2995-4"></path>
        </g>
    </g>
</svg>