<svg width="5015" height="4250" viewBox="0 0 5015 4250" fill="none" xmlns="http://www.w3.org/2000/svg">
<path d="M0 3036.02H406.014V1268.29H0V1035.1L789.124 999.701L841.177 1453.6C868.939 1371.71 909.193 1298.83 961.941 1234.98C1014.69 1169.74 1074.38 1118.38 1141 1080.9C1268.71 1010.11 1403.35 974.715 1544.93 974.715C1599.07 974.715 1644.88 977.492 1682.35 983.044C1719.83 987.208 1762.17 996.925 1809.36 1012.19C1862.11 1030.24 1907.22 1054.53 1944.7 1085.07C1983.57 1115.61 2021.05 1158.64 2057.14 1214.16C2091.84 1269.68 2120.99 1337.7 2144.59 1418.21C2209.83 1269.68 2300.05 1158.64 2415.26 1085.07C2531.86 1011.5 2663.73 974.715 2810.87 974.715C2858.06 974.715 2899.7 976.798 2935.79 980.962C2973.27 985.126 3014.22 994.149 3058.64 1008.03C3108.61 1023.3 3152.33 1042.73 3189.81 1066.33C3228.68 1089.93 3268.24 1121.85 3308.49 1162.11C3350.13 1205.14 3384.14 1254.41 3410.52 1309.94C3436.89 1364.07 3459.1 1431.39 3477.14 1511.9C3493.8 1592.41 3502.13 1683.33 3502.13 1784.66V3036.02H3885.24V3269.21H2717.17V3036.02H3054.47V1788.83C3054.47 1612.54 3019.77 1480.67 2950.37 1393.22C2880.96 1304.38 2783.1 1259.97 2656.79 1259.97C2561.01 1259.97 2477.73 1280.79 2406.93 1322.43C2336.14 1364.07 2282.01 1421.68 2244.53 1495.25C2207.05 1568.81 2188.31 1652.79 2188.31 1747.18V3036.02H2546.44V3269.21H1382.53V3036.02H1740.65V1788.83C1740.65 1612.54 1705.95 1480.67 1636.55 1393.22C1567.14 1304.38 1469.28 1259.97 1342.97 1259.97C1265.24 1259.97 1195.83 1275.24 1134.76 1305.77C1075.07 1334.92 1027.18 1374.48 991.09 1424.45C957.776 1471.65 930.015 1530.64 907.805 1601.43C886.984 1670.84 872.409 1742.32 864.081 1815.89C857.14 1895.01 853.67 1972.75 853.67 2049.09V3036.02H1211.8V3269.21H0V3036.02Z" fill="#0C2999"/>
<path d="M4658.67 641.581C4603.14 641.581 4551.78 627.7 4504.59 599.938C4457.39 572.177 4419.92 534.698 4392.15 487.504C4364.39 440.309 4350.51 389.644 4350.51 335.509C4350.51 278.597 4364.39 226.544 4392.15 179.35C4419.92 130.767 4457.39 92.5944 4504.59 64.8328C4551.78 37.0711 4603.14 23.1903 4658.67 23.1903C4712.8 23.1903 4763.47 37.7652 4810.66 66.9149C4859.24 94.6765 4897.42 132.849 4925.18 181.432C4954.33 228.626 4968.9 279.985 4968.9 335.509C4968.9 389.644 4954.33 440.309 4925.18 487.504C4897.42 534.698 4859.24 572.177 4810.66 599.938C4763.47 627.7 4712.8 641.581 4658.67 641.581ZM4211.01 4249.9C4008.35 4249.9 3852.88 4210.34 3744.61 4131.22C3634.96 4052.1 3580.13 3941.05 3580.13 3798.08C3580.13 3738.39 3594.01 3686.34 3621.77 3641.92C3649.53 3597.5 3686.32 3563.49 3732.12 3539.9C3777.93 3516.3 3827.9 3504.5 3882.03 3504.5C3951.44 3504.5 4009.04 3525.32 4054.85 3566.96C4102.05 3608.61 4125.64 3664.13 4125.64 3733.53C4125.64 3875.12 4085.39 3963.26 4004.88 3997.96C4050.69 4014.62 4100.66 4022.95 4154.79 4022.95C4197.82 4022.95 4236.69 4016.01 4271.39 4002.13C4307.48 3988.25 4343.57 3965.34 4379.66 3933.42C4417.14 3900.1 4445.6 3848.05 4465.03 3777.26C4485.85 3706.47 4496.26 3621.1 4496.26 3521.16V1268.3H3988.22V1035.1H4943.92V3456.61C4943.92 3623.18 4913.38 3766.15 4852.3 3885.53C4792.62 4004.9 4707.25 4095.13 4596.2 4156.2C4486.54 4218.67 4358.15 4249.9 4211.01 4249.9Z" fill="#0C2999"/>
<ellipse cx="4659.64" cy="355.349" rx="355.349" ry="355.349" fill="#FF1C14"/>
</svg>
