<svg width="16" height="10" viewBox="0 0 16 10" fill="none" xmlns="http://www.w3.org/2000/svg">
<path d="M5.12912 5.00006L0.620117 7.93587V2.06425L5.12912 5.00006ZM10.8711 5.00006L15.3801 7.93587V2.06425L10.8711 5.00006ZM10.2123 5.43027L8.19632 6.74246C8.13692 6.78026 8.06851 6.80006 8.00011 6.80006C7.93171 6.80006 7.86332 6.78026 7.80392 6.74246L5.78791 5.43027L0.918915 8.60007L0.636314 8.78366C0.724514 9.29126 1.16732 9.68005 1.70012 9.68005H14.3001C14.8329 9.68005 15.2757 9.29306 15.3639 8.78366L15.0795 8.60007L10.2123 5.43027ZM8.00011 6.00986L15.0795 1.40005L15.3639 1.21646C15.2757 0.707061 14.8329 0.320068 14.3001 0.320068H1.70012C1.16732 0.320068 0.724514 0.708861 0.636314 1.21646L0.918915 1.40005L8.00011 6.00986Z" fill="#0C2999"/>
</svg>
