<svg width="52" height="44" viewBox="0 0 52 44" fill="none" xmlns="http://www.w3.org/2000/svg">
<path d="M0.717773 30.8747H4.84673V12.8979H0.717773V10.5264L8.74277 10.1664L9.27212 14.7824C9.55444 13.9496 9.96381 13.2085 10.5002 12.5591C11.0366 11.8957 11.6436 11.3734 12.3212 10.9922C13.6199 10.2723 14.9891 9.91235 16.429 9.91235C16.9795 9.91235 17.4453 9.94059 17.8265 9.99705C18.2076 10.0394 18.6381 10.1382 19.1181 10.2935C19.6545 10.477 20.1133 10.724 20.4944 11.0346C20.8897 11.3451 21.2708 11.7827 21.6378 12.3474C21.9907 12.912 22.2871 13.6037 22.5271 14.4224C23.1906 12.912 24.1081 11.7827 25.2798 11.0346C26.4655 10.2864 27.8065 9.91235 29.3028 9.91235C29.7828 9.91235 30.2063 9.93353 30.5733 9.97588C30.9544 10.0182 31.3708 10.11 31.8226 10.2511C32.3307 10.4064 32.7754 10.604 33.1565 10.844C33.5518 11.084 33.9541 11.4087 34.3635 11.818C34.7869 12.2556 35.1328 12.7567 35.401 13.3214C35.6692 13.8719 35.8951 14.5565 36.0786 15.3753C36.248 16.194 36.3327 17.1186 36.3327 18.1491V30.8747H40.2287V33.2462H28.35V30.8747H31.7802V18.1914C31.7802 16.3987 31.4273 15.0577 30.7215 14.1684C30.0157 13.2649 29.0205 12.8132 27.736 12.8132C26.7619 12.8132 25.915 13.025 25.1951 13.4484C24.4751 13.8719 23.9246 14.4577 23.5435 15.2059C23.1623 15.954 22.9718 16.8081 22.9718 17.768V30.8747H26.6137V33.2462H14.7774V30.8747H18.4193V18.1914C18.4193 16.3987 18.0664 15.0577 17.3606 14.1684C16.6548 13.2649 15.6596 12.8132 14.3751 12.8132C13.5846 12.8132 12.8788 12.9685 12.2577 13.279C11.6507 13.5755 11.1637 13.9778 10.7967 14.486C10.4579 14.9659 10.1755 15.5658 9.94969 16.2858C9.73795 16.9916 9.58973 17.7185 9.50504 18.4667C9.43445 19.2713 9.39916 20.0618 9.39916 20.8382V30.8747H13.0411V33.2462H0.717773V30.8747Z" fill="#0C2999"/>
<path d="M48.0942 6.52456C47.5295 6.52456 47.0072 6.3834 46.5273 6.10107C46.0473 5.81875 45.6662 5.43762 45.3839 4.95767C45.1016 4.47772 44.9604 3.96249 44.9604 3.41196C44.9604 2.8332 45.1016 2.30385 45.3839 1.8239C45.6662 1.32984 46.0473 0.941644 46.5273 0.659322C47.0072 0.377001 47.5295 0.23584 48.0942 0.23584C48.6447 0.23584 49.1599 0.384059 49.6399 0.680497C50.1339 0.962818 50.5221 1.35101 50.8045 1.84507C51.1009 2.32502 51.2491 2.84732 51.2491 3.41196C51.2491 3.96249 51.1009 4.47772 50.8045 4.95767C50.5221 5.43762 50.1339 5.81875 49.6399 6.10107C49.1599 6.3834 48.6447 6.52456 48.0942 6.52456ZM43.5417 43.2193C41.4808 43.2193 39.8998 42.817 38.7987 42.0124C37.6836 41.2078 37.126 40.0785 37.126 38.6245C37.126 38.0175 37.2671 37.4882 37.5495 37.0365C37.8318 36.5848 38.2059 36.2389 38.6717 35.9989C39.1375 35.759 39.6457 35.639 40.1962 35.639C40.902 35.639 41.4878 35.8507 41.9537 36.2742C42.4336 36.6977 42.6736 37.2623 42.6736 37.9681C42.6736 39.408 42.2642 40.3043 41.4455 40.6573C41.9113 40.8266 42.4195 40.9113 42.97 40.9113C43.4076 40.9113 43.8029 40.8408 44.1558 40.6996C44.5228 40.5584 44.8898 40.3255 45.2568 40.0009C45.638 39.6621 45.9274 39.1327 46.125 38.4128C46.3367 37.6929 46.4426 36.8247 46.4426 35.8084V12.898H41.2761V10.5265H50.995V35.152C50.995 36.8459 50.6845 38.2999 50.0634 39.5138C49.4564 40.7278 48.5882 41.6454 47.459 42.2665C46.3438 42.9017 45.038 43.2193 43.5417 43.2193Z" fill="#0C2999"/>
<circle cx="48.104" cy="3.61372" r="3.61372" fill="#FF1C14"/>
</svg>
