<svg width="14" height="14" viewBox="0 0 14 14" fill="none" xmlns="http://www.w3.org/2000/svg">
<path d="M10.0968 8.56557L9.08742 9.13417C8.96622 9.20237 8.82622 9.22917 8.68842 9.21017C8.55082 9.19137 8.42302 9.12777 8.32462 9.02957L4.95562 5.66037C4.85722 5.56197 4.79382 5.43417 4.77502 5.29657C4.75602 5.15877 4.78262 5.01877 4.85082 4.89757L5.41942 3.88817C5.52182 3.70637 5.56182 3.49617 5.53362 3.28957C5.50522 3.08297 5.41002 2.89137 5.26262 2.74397L3.74962 1.23097C3.66082 1.14237 3.55562 1.07197 3.43982 1.02397C3.32382 0.975772 3.19962 0.951172 3.07422 0.951172C2.94882 0.951172 2.82462 0.975772 2.70862 1.02397C2.59282 1.07197 2.48742 1.14237 2.39882 1.23097L1.71182 1.91757C1.31022 2.31917 1.05422 2.84356 0.984818 3.40756C0.915618 3.97136 1.03662 4.54217 1.32902 5.02937L1.67382 5.60378C3.43402 8.53758 5.91862 10.9698 8.88902 12.667L8.95702 12.7062C9.97182 13.286 11.2256 13.117 12.038 12.305L12.7554 11.5876C12.8442 11.499 12.9146 11.3936 12.9626 11.2778C13.0106 11.162 13.0352 11.0376 13.0352 10.9122C13.0352 10.7868 13.0106 10.6626 12.9626 10.5468C12.9146 10.4308 12.8442 10.3256 12.7554 10.2368L11.2416 8.72298C11.0942 8.57518 10.9024 8.47997 10.6956 8.45157C10.489 8.42297 10.2786 8.46317 10.0968 8.56557Z" fill="#0C2999"/>
</svg>
